<svg xmlns="http://www.w3.org/2000/svg" width="40" height="40" viewBox="0 0 40 40">
    <defs>
        <style>
            .prefix__cls-1,.prefix__cls-2{fill:#fff;stroke:#222}.prefix__cls-2{fill:none;stroke-linecap:round;stroke-linejoin:round}
        </style>
    </defs>
    <g id="prefix__ic_event" transform="translate(-158.589 -1712.768)">
        <g id="prefix__그룹_6996" data-name="그룹 6996" transform="translate(160.257 1716.768)">
            <g id="prefix__그룹_6988" data-name="그룹 6988" transform="translate(7.299 2.233)">
                <path id="prefix__패스_11138" d="M178.923 196.721a9.174 9.174 0 0 1 0-4.718 9.188 9.188 0 0 0 0-4.719" class="prefix__cls-1" data-name="패스 11138" transform="translate(-170.344 -167.49)"/>
                <path id="prefix__패스_11139" d="M178.923 196.721a9.174 9.174 0 0 1 0-4.718 9.188 9.188 0 0 0 0-4.719" class="prefix__cls-2" data-name="패스 11139" transform="translate(-170.344 -167.49)"/>
                <path id="prefix__패스_11140" d="M187.3 176.649c0 5.329-3.842 9.649-8.578 9.649s-8.579-4.321-8.579-9.649 3.842-9.65 8.579-9.65 8.578 4.321 8.578 9.65" class="prefix__cls-1" data-name="패스 11140" transform="translate(-170.139 -166.999)"/>
                <path id="prefix__패스_11141" d="M187.3 176.649c0 5.329-3.842 9.649-8.578 9.649s-8.579-4.321-8.579-9.649 3.842-9.65 8.579-9.65 8.578 4.321 8.578 9.65z" class="prefix__cls-2" data-name="패스 11141" transform="translate(-170.139 -166.999)"/>
                <path id="prefix__패스_11142" d="M181.446 190.176h-5.16l1.847-3.4h1.467z" class="prefix__cls-1" data-name="패스 11142" transform="translate(-170.288 -167.478)"/>
                <path id="prefix__패스_11143" d="M181.446 190.176h-5.16l1.847-3.4h1.467z" class="prefix__cls-2" data-name="패스 11143" transform="translate(-170.288 -167.478)"/>
            </g>
            <g id="prefix__그룹_6989" data-name="그룹 6989" transform="translate(19.866 11.165)">
                <path id="prefix__패스_11138-2" d="M178.828 193.8a6.332 6.332 0 0 1 0-3.256 6.341 6.341 0 0 0 0-3.257" class="prefix__cls-1" data-name="패스 11138" transform="translate(-172.906 -173.623)"/>
                <path id="prefix__패스_11139-2" d="M178.828 193.8a6.332 6.332 0 0 1 0-3.256 6.341 6.341 0 0 0 0-3.257" class="prefix__cls-2" data-name="패스 11139" transform="translate(-172.906 -173.623)"/>
                <path id="prefix__패스_11140-2" d="M181.981 173.66c0 3.678-2.651 6.66-5.92 6.66s-5.921-2.982-5.921-6.66 2.65-6.66 5.92-6.66 5.92 2.982 5.92 6.661" class="prefix__cls-1" data-name="패스 11140" transform="translate(-170.139 -166.999)"/>
                <path id="prefix__패스_11141-2" d="M181.981 173.66c0 3.678-2.651 6.66-5.92 6.66s-5.921-2.982-5.921-6.66 2.65-6.66 5.92-6.66 5.921 2.981 5.921 6.66z" class="prefix__cls-2" data-name="패스 11141" transform="translate(-170.139 -166.999)"/>
                <path id="prefix__패스_11142-2" d="M179.847 189.123h-3.561l1.275-2.345h1.011z" class="prefix__cls-1" data-name="패스 11142" transform="translate(-172.146 -173.458)"/>
                <path id="prefix__패스_11143-2" d="M179.847 189.123h-3.561l1.275-2.345h1.011z" class="prefix__cls-2" data-name="패스 11143" transform="translate(-172.146 -173.458)"/>
            </g>
            <g id="prefix__그룹_6990" data-name="그룹 6990">
                <path id="prefix__선_280" d="M0 0L0 2.762" class="prefix__cls-2" data-name="선 280" transform="translate(27.961)"/>
                <path id="prefix__선_282" d="M0 0L2.761 0" class="prefix__cls-2" data-name="선 282" transform="translate(26.583 1.381)"/>
                <path id="prefix__선_284" d="M0 0L0 3.192" class="prefix__cls-2" data-name="선 284" transform="translate(1.928 8.268)"/>
                <path id="prefix__선_286" d="M0 0L3.192 0" class="prefix__cls-2" data-name="선 286" transform="translate(.332 9.869)"/>
                <path id="prefix__패스_11146" d="M267.773 267.473a1.274 1.274 0 1 1-1.273-1.273 1.274 1.274 0 0 1 1.274 1.273" class="prefix__cls-1" data-name="패스 11146" transform="translate(-231.725 -260.161)"/>
                <path id="prefix__패스_11149" d="M260.9 259.39a2.609 2.609 0 0 1 2.61-2.609" class="prefix__cls-2" data-name="패스 11149" transform="translate(-250.243 -249.817)"/>
            </g>
        </g>
        <path id="prefix__guide" d="M0 0H40V40H0z" transform="translate(158.589 1712.768)" style="opacity:0;fill:none"/>
    </g>
</svg>
